{
    "asset" : {
        "generator" : "Khronos glTF Blender I/O v1.6.16",
        "version" : "2.0"
    },
    "scene" : 0,
    "scenes" : [
        {
            "name" : "Scene",
            "nodes" : [
                0
            ]
        }
    ],
    "nodes" : [
        {
            "mesh" : 0,
            "name" : "Cube",
            "scale" : [
                2.3462231159210205,
                2.3462231159210205,
                2.3462231159210205
            ],
            "translation" : [
                -4.936041831970215,
                0.8352527618408203,
                3.9732794761657715
            ]
        }
    ],
    "materials" : [
        {
            "doubleSided" : true,
            "name" : "dino",
            "pbrMetallicRoughness" : {
                "baseColorFactor" : [
                    0,
                    0.8000000715255737,
                    0.8000000715255737,
                    1
                ],
                "metallicFactor" : 0
            }
        },
        {
            "doubleSided" : true,
            "name" : "eye",
            "pbrMetallicRoughness" : {
                "baseColorFactor" : [
                    0.800000011920929,
                    0.800000011920929,
                    0.800000011920929,
                    1
                ],
                "metallicFactor" : 0
            }
        },
        {
            "doubleSided" : true,
            "name" : "pupil",
            "pbrMetallicRoughness" : {
                "baseColorFactor" : [
                    0.083533376455307,
                    0.07997334003448486,
                    0.07890601456165314,
                    1
                ],
                "metallicFactor" : 0,
                "roughnessFactor" : 0.5
            }
        }
    ],
    "meshes" : [
        {
            "name" : "Cube.002",
            "primitives" : [
                {
                    "attributes" : {
                        "POSITION" : 0,
                        "NORMAL" : 1,
                        "TEXCOORD_0" : 2
                    },
                    "indices" : 3,
                    "material" : 0
                },
                {
                    "attributes" : {
                        "POSITION" : 4,
                        "NORMAL" : 5,
                        "TEXCOORD_0" : 6
                    },
                    "indices" : 7,
                    "material" : 1
                },
                {
                    "attributes" : {
                        "POSITION" : 8,
                        "NORMAL" : 9,
                        "TEXCOORD_0" : 10
                    },
                    "indices" : 11,
                    "material" : 2
                }
            ]
        }
    ],
    "accessors" : [
        {
            "bufferView" : 0,
            "componentType" : 5126,
            "count" : 1406,
            "max" : [
                2.750000238418579,
                10.245180130004883,
                1.9215824604034424
            ],
            "min" : [
                -8.25,
                0,
                -1.9215829372406006
            ],
            "type" : "VEC3"
        },
        {
            "bufferView" : 1,
            "componentType" : 5126,
            "count" : 1406,
            "type" : "VEC3"
        },
        {
            "bufferView" : 2,
            "componentType" : 5126,
            "count" : 1406,
            "type" : "VEC2"
        },
        {
            "bufferView" : 3,
            "componentType" : 5123,
            "count" : 3198,
            "type" : "SCALAR"
        },
        {
            "bufferView" : 4,
            "componentType" : 5126,
            "count" : 322,
            "max" : [
                2.750000238418579,
                8.666666030883789,
                1.839278221130371
            ],
            "min" : [
                -0.7499997615814209,
                3.000000476837158,
                -1.8392786979675293
            ],
            "type" : "VEC3"
        },
        {
            "bufferView" : 5,
            "componentType" : 5126,
            "count" : 322,
            "type" : "VEC3"
        },
        {
            "bufferView" : 6,
            "componentType" : 5126,
            "count" : 322,
            "type" : "VEC2"
        },
        {
            "bufferView" : 7,
            "componentType" : 5123,
            "count" : 564,
            "type" : "SCALAR"
        },
        {
            "bufferView" : 8,
            "componentType" : 5126,
            "count" : 106,
            "max" : [
                2.8500001430511475,
                8.59864616394043,
                2.0064938068389893
            ],
            "min" : [
                -0.4999997615814209,
                7.8333330154418945,
                -2.0064942836761475
            ],
            "type" : "VEC3"
        },
        {
            "bufferView" : 9,
            "componentType" : 5126,
            "count" : 106,
            "type" : "VEC3"
        },
        {
            "bufferView" : 10,
            "componentType" : 5126,
            "count" : 106,
            "type" : "VEC2"
        },
        {
            "bufferView" : 11,
            "componentType" : 5123,
            "count" : 204,
            "type" : "SCALAR"
        }
    ],
    "bufferViews" : [
        {
            "buffer" : 0,
            "byteLength" : 16872,
            "byteOffset" : 0
        },
        {
            "buffer" : 0,
            "byteLength" : 16872,
            "byteOffset" : 16872
        },
        {
            "buffer" : 0,
            "byteLength" : 11248,
            "byteOffset" : 33744
        },
        {
            "buffer" : 0,
            "byteLength" : 6396,
            "byteOffset" : 44992
        },
        {
            "buffer" : 0,
            "byteLength" : 3864,
            "byteOffset" : 51388
        },
        {
            "buffer" : 0,
            "byteLength" : 3864,
            "byteOffset" : 55252
        },
        {
            "buffer" : 0,
            "byteLength" : 2576,
            "byteOffset" : 59116
        },
        {
            "buffer" : 0,
            "byteLength" : 1128,
            "byteOffset" : 61692
        },
        {
            "buffer" : 0,
            "byteLength" : 1272,
            "byteOffset" : 62820
        },
        {
            "buffer" : 0,
            "byteLength" : 1272,
            "byteOffset" : 64092
        },
        {
            "buffer" : 0,
            "byteLength" : 848,
            "byteOffset" : 65364
        },
        {
            "buffer" : 0,
            "byteLength" : 408,
            "byteOffset" : 66212
        }
    ],
    "buffers" : [
        {
            "byteLength" : 66620,
            "uri" : "data:application/octet-stream;base64,"
        }
    ]
}
